<svg width="150" height="150" viewBox="0 0 150 150" fill="none" xmlns="http://www.w3.org/2000/svg">
  <rect width="150" height="150" rx="20" fill="#2196F3" opacity="0.1"/>
  <path d="M75 35C53.46 35 36 52.46 36 74C36 95.54 53.46 113 75 113C96.54 113 114 95.54 114 74C114 52.46 96.54 35 75 35ZM75 103C58.98 103 46 90.02 46 74C46 57.98 58.98 45 75 45C91.02 45 104 57.98 104 74C104 90.02 91.02 103 75 103Z" fill="#2196F3"/>
  <path d="M82 64H78V60C78 57.24 75.76 55 73 55H77C74.24 55 72 57.24 72 60V64H68C65.24 64 63 66.24 63 69V73C63 75.76 65.24 78 68 78H72V82C72 84.76 74.24 87 77 87H73C75.76 87 78 84.76 78 82V78H82C84.76 78 87 75.76 87 73V69C87 66.24 84.76 64 82 64Z" fill="#2196F3"/>
</svg>